<svg xmlns="http://www.w3.org/2000/svg" version="1.1" xmlns:xlink="http://www.w3.org/1999/xlink" xmlns:svgjs="http://svgjs.dev/svgjs" width="1500" height="2369" viewBox="0 0 1500 2369"><g transform="matrix(1,0,0,1,-0.6241282521860967,-3.8209677419356467)"><svg viewBox="0 0 157 248" data-background-color="#ffffff" preserveAspectRatio="xMidYMid meet" height="2369" width="1500" xmlns="http://www.w3.org/2000/svg" xmlns:xlink="http://www.w3.org/1999/xlink"><g id="tight-bounds" transform="matrix(1,0,0,1,0.06532542372880812,0.4000000000000057)"><svg viewBox="0 0 156.86934915254238 247.2" height="247.2" width="156.86934915254238"><g><svg></svg></g><g><svg viewBox="0 0 156.86934915254238 247.2" height="247.2" width="156.86934915254238"><g transform="matrix(1,0,0,1,0,47.215199999999996)"><svg viewBox="0 0 156.86934915254238 152.7696" height="152.7696" width="156.86934915254238"><g><svg viewBox="0 0 156.86934915254238 152.7696" height="152.7696" width="156.86934915254238"><g><svg viewBox="0 0 156.86934915254238 152.7696" height="152.7696" width="156.86934915254238"><g><svg viewBox="0 0 156.86934915254238 152.7696" height="152.7696" width="156.86934915254238"><g id="textblocktransform"><svg viewBox="0 0 156.86934915254238 152.7696" height="152.7696" width="156.86934915254238" id="textblock"><g><svg viewBox="0 0 156.86934915254238 152.7696" height="152.7696" width="156.86934915254238"><g transform="matrix(1,0,0,1,0,0)"><svg width="156.86934915254238" viewBox="-1.4 -35.35 36.35 35.4" height="152.7696" data-palette-color="#1cace0"><path d="M-1.35 0.05L-1.35 0.05Q-1.45-0.75-1.35-1.55L-1.35-1.55Q0.05-1.7 0.9-1.9 1.75-2.1 2.35-2.63 2.95-3.15 3.5-4.23 4.05-5.3 4.8-7.25L4.8-7.25 15.6-34.95Q16.15-35.15 16.93-35.25 17.7-35.35 18.25-35.35L18.25-35.35 29-6.8Q29.7-5 30.15-3.98 30.6-2.95 31.15-2.5 31.7-2.05 32.55-1.88 33.4-1.7 34.9-1.55L34.9-1.55Q35-0.75 34.9 0.05L34.9 0.05Q33.15 0.05 31.3 0 29.45-0.05 27.6-0.05L27.6-0.05Q25.7-0.05 23.78 0 21.85 0.05 19.95 0.05L19.95 0.05Q19.8-0.7 19.95-1.55L19.95-1.55Q22.4-1.8 23.35-2.02 24.3-2.25 24.3-3.2L24.3-3.2Q24.3-3.6 24.15-4.1 24-4.6 23.75-5.35L23.75-5.35 20.9-13.05 9.65-13.05 7.15-6.15Q6.8-5.2 6.63-4.58 6.45-3.95 6.45-3.45L6.45-3.45Q6.45-2.35 7.48-2.08 8.5-1.8 10.85-1.55L10.85-1.55Q10.95-0.7 10.85 0.05L10.85 0.05Q9.15 0.05 7.5 0 5.85-0.05 4.15-0.05L4.15-0.05Q2.75-0.05 1.45 0 0.15 0.05-1.35 0.05ZM15.25-28.45L10.4-15.15 20.15-15.15 15.25-28.45Z" opacity="1" transform="matrix(1,0,0,1,0,0)" fill="#1cace0" class="wordmark-text-0" data-fill-palette-color="primary" id="text-0"></path></svg></g></svg></g></svg></g></svg></g><g></g></svg></g></svg></g></svg></g><path d="M0 41.215L0 1 156.869 1 156.869 41.215 143.092 41.215 143.092 14.777 13.777 14.777 13.777 41.215 0 41.215M0 205.985L0 246.2 156.869 246.2 156.869 205.985 143.092 205.985 143.092 232.423 13.777 232.423 13.777 205.985 0 205.985" fill="#1cace0" stroke="transparent" data-fill-palette-color="tertiary"></path></svg></g><defs></defs></svg><rect width="156.86934915254238" height="247.2" fill="none" stroke="none" visibility="hidden"></rect></g></svg></g></svg>