<svg xmlns="http://www.w3.org/2000/svg" version="1.1" xmlns:xlink="http://www.w3.org/1999/xlink" xmlns:svgjs="http://svgjs.dev/svgjs" width="1500" height="937" viewBox="0 0 1500 937"><g transform="matrix(1,0,0,1,0,0)"><svg viewBox="0 0 576 360" data-background-color="#000000" preserveAspectRatio="xMidYMid meet" height="937" width="1500" xmlns="http://www.w3.org/2000/svg" xmlns:xlink="http://www.w3.org/1999/xlink"><g id="tight-bounds" transform="matrix(1,0,0,1,0,0)"><svg viewBox="0 0 576 360" height="360" width="576"><rect width="576" height="360" fill="url(#b74d2ed0-9920-49af-a30b-d58940bb4db8)" mask="url(#dd208a46-587d-46ec-9f08-7fd0c9e0c441)" data-fill-palette-color="tertiary"></rect><g><svg></svg></g><g><svg viewBox="0 0 576 360" height="360" width="576"><g><path d="M132.115 90l155.885-90 155.885 90v180l-155.885 90-155.885-90zM138.708 266.194l149.292 86.194 149.292-86.194 0-172.388-149.292-86.194-149.292 86.194z" fill="url(#b74d2ed0-9920-49af-a30b-d58940bb4db8)" fill-rule="nonzero" stroke="none" stroke-width="1" stroke-linecap="butt" stroke-linejoin="miter" stroke-miterlimit="10" stroke-dasharray="" stroke-dashoffset="0" font-family="none" font-weight="none" font-size="none" text-anchor="none" style="mix-blend-mode: normal" data-fill-palette-color="tertiary"></path></g><g transform="matrix(1,0,0,1,218.74470902984066,99)"><svg viewBox="0 0 138.51058194031867 162" height="162" width="138.51058194031867"><g><svg viewBox="0 0 230.4 269.47255203997685" height="162" width="138.51058194031867"><g transform="matrix(1,0,0,1,0,147.877555949281)"><svg viewBox="0 0 230.4 121.59499609069584" height="121.59499609069584" width="230.4"><g id="textblocktransform"><svg viewBox="0 0 230.4 121.59499609069584" height="121.59499609069584" width="230.4" id="textblock"><g><svg viewBox="0 0 230.4 121.59499609069584" height="121.59499609069584" width="230.4"><g transform="matrix(1,0,0,1,0,0)"><svg width="230.4" viewBox="1.5 -33.7 63.94 33.75" height="121.59499609069584" data-palette-color="url(#e2ff6c35-b620-4b3a-9f82-4fe678cb058a)"></svg></g></svg></g></svg></g></svg></g><g transform="matrix(1,0,0,1,47.56608,0)"><svg viewBox="0 0 135.26784 119.1718956521739" height="119.1718956521739" width="135.26784"><g><svg xmlns="http://www.w3.org/2000/svg" xmlns:xlink="http://www.w3.org/1999/xlink" version="1.1" x="0" y="0" viewBox="6.3 11.5 87.4 77" style="enable-background:new 0 0 100 100;" xml:space="preserve" height="119.1718956521739" width="135.26784" class="icon-icon-0" data-fill-palette-color="accent" id="icon-0"></svg></g></svg></g><g></g></svg></g></svg></g></svg></g><defs></defs><mask id="304cd5b1-12e3-44ae-b9d4-9254dbf521a0"><g id="SvgjsG4624"><svg viewBox="0 0 576 360" height="360" width="576"><g><svg></svg></g><g><svg viewBox="0 0 576 360" height="360" width="576"><g><path d="M132.115 90l155.885-90 155.885 90v180l-155.885 90-155.885-90zM138.708 266.194l149.292 86.194 149.292-86.194 0-172.388-149.292-86.194-149.292 86.194z" fill="black" fill-rule="nonzero" stroke="none" stroke-width="1" stroke-linecap="butt" stroke-linejoin="miter" stroke-miterlimit="10" stroke-dasharray="" stroke-dashoffset="0" font-family="none" font-weight="none" font-size="none" text-anchor="none" style="mix-blend-mode: normal"></path></g><g transform="matrix(1,0,0,1,218.74470902984066,99)"><svg viewBox="0 0 138.51058194031867 162" height="162" width="138.51058194031867"><g><svg viewBox="0 0 230.4 269.47255203997685" height="162" width="138.51058194031867"><g transform="matrix(1,0,0,1,0,147.877555949281)"><svg viewBox="0 0 230.4 121.59499609069584" height="121.59499609069584" width="230.4"><g id="SvgjsG4623"><svg viewBox="0 0 230.4 121.59499609069584" height="121.59499609069584" width="230.4" id="SvgjsSvg4622"><g><svg viewBox="0 0 230.4 121.59499609069584" height="121.59499609069584" width="230.4"><g transform="matrix(1,0,0,1,0,0)"><svg width="230.4" viewBox="1.5 -33.7 63.94 33.75" height="121.59499609069584" data-palette-color="url(#e2ff6c35-b620-4b3a-9f82-4fe678cb058a)"><path d="M16.6-33.65L16.6-10.2Q16.6-5.35 14.03-2.65 11.45 0.05 6.85 0.05L6.85 0.05Q3.4 0.05 1.5-0.95L1.5-0.95 1.5-7.75Q3.35-6.6 5.35-6.6L5.35-6.6Q8.9-6.6 8.9-10.4L8.9-10.4 8.9-33.65 16.6-33.65ZM45.55-14.3L45.55-14.3 45.2-13.1 53.3-13.1 52.95-14.3Q51.5-19.2 50.57-22.65 49.64-26.1 49.45-27.1L49.45-27.1 49.25-28.1Q48.84-25.35 45.55-14.3ZM43.34-6.9L41.3 0 33.24 0 44.49-33.7 54.2-33.7 65.44 0 57.2 0 55.14-6.9 43.34-6.9Z" opacity="1" transform="matrix(1,0,0,1,0,0)" fill="white" class="wordmark-text-0" id="SvgjsPath4621"></path></svg></g></svg></g></svg></g></svg></g><g transform="matrix(1,0,0,1,47.56608,0)"><svg viewBox="0 0 135.26784 119.1718956521739" height="119.1718956521739" width="135.26784"><g><svg xmlns="http://www.w3.org/2000/svg" xmlns:xlink="http://www.w3.org/1999/xlink" version="1.1" x="0" y="0" viewBox="6.3 11.5 87.4 77" style="enable-background:new 0 0 100 100;" xml:space="preserve" height="119.1718956521739" width="135.26784" class="icon-icon-0" data-fill-palette-color="accent" id="SvgjsSvg4620"><path d="M72.3 12.3L71.9 11.5H28.2L6.3 50 28.1 88.5H71.8L93.7 50zM33.3 25.3L9.9 47.7 28.5 14.9zM70.7 14.8L77.1 50.5 36.9 25.8zM35.5 27.3L76.5 52.5 35.5 75.8zM77 54.5L69.8 85.3 37.2 77.2zM33.5 75L9.9 50.5 33.5 27.8zM33.2 77.6L28.6 85.3 11.5 55.1zM35 78.6L66.4 86.5H30.2zM79.3 53.3L90.9 50.8 72.1 84zM90.7 48.9L79.3 51.4 73.4 18.3zM35 24.3L30 13.5H68.2z" fill="black"></path></svg></g></svg></g><g></g></svg></g></svg></g></svg></g><defs><mask></mask></defs></svg><rect width="576" height="360" fill="black" stroke="none" visibility="hidden"></rect></g></mask><linearGradient x1="0" x2="1" y1="0.578" y2="0.595" id="e2ff6c35-b620-4b3a-9f82-4fe678cb058a"><stop stop-color="#6ee2f5" offset="0"></stop><stop stop-color="#6454f0" offset="1"></stop></linearGradient><rect width="576" height="360" fill="url(#e2ff6c35-b620-4b3a-9f82-4fe678cb058a)" mask="url(#304cd5b1-12e3-44ae-b9d4-9254dbf521a0)" data-fill-palette-color="primary"></rect><mask id="650446e8-3207-47d0-a122-8c34e84984ac"><g id="SvgjsG4643"><svg viewBox="0 0 576 360" height="360" width="576"><g><svg></svg></g><g><svg viewBox="0 0 576 360" height="360" width="576"><g><path d="M132.115 90l155.885-90 155.885 90v180l-155.885 90-155.885-90zM138.708 266.194l149.292 86.194 149.292-86.194 0-172.388-149.292-86.194-149.292 86.194z" fill="black" fill-rule="nonzero" stroke="none" stroke-width="1" stroke-linecap="butt" stroke-linejoin="miter" stroke-miterlimit="10" stroke-dasharray="" stroke-dashoffset="0" font-family="none" font-weight="none" font-size="none" text-anchor="none" style="mix-blend-mode: normal"></path></g><g transform="matrix(1,0,0,1,218.74470902984066,99)"><svg viewBox="0 0 138.51058194031867 162" height="162" width="138.51058194031867"><g><svg viewBox="0 0 230.4 269.47255203997685" height="162" width="138.51058194031867"><g transform="matrix(1,0,0,1,0,147.877555949281)"><svg viewBox="0 0 230.4 121.59499609069584" height="121.59499609069584" width="230.4"><g id="SvgjsG4642"><svg viewBox="0 0 230.4 121.59499609069584" height="121.59499609069584" width="230.4" id="SvgjsSvg4641"><g><svg viewBox="0 0 230.4 121.59499609069584" height="121.59499609069584" width="230.4"><g transform="matrix(1,0,0,1,0,0)"><svg width="230.4" viewBox="1.5 -33.7 63.94 33.75" height="121.59499609069584" data-palette-color="url(#e2ff6c35-b620-4b3a-9f82-4fe678cb058a)"></svg></g></svg></g></svg></g></svg></g><g transform="matrix(1,0,0,1,47.56608,0)"><svg viewBox="0 0 135.26784 119.1718956521739" height="119.1718956521739" width="135.26784"><g><svg xmlns="http://www.w3.org/2000/svg" xmlns:xlink="http://www.w3.org/1999/xlink" version="1.1" x="0" y="0" viewBox="6.3 11.5 87.4 77" style="enable-background:new 0 0 100 100;" xml:space="preserve" height="119.1718956521739" width="135.26784" class="icon-icon-0" data-fill-palette-color="accent" id="SvgjsSvg4640"><path d="M72.3 12.3L71.9 11.5H28.2L6.3 50 28.1 88.5H71.8L93.7 50zM33.3 25.3L9.9 47.7 28.5 14.9zM70.7 14.8L77.1 50.5 36.9 25.8zM35.5 27.3L76.5 52.5 35.5 75.8zM77 54.5L69.8 85.3 37.2 77.2zM33.5 75L9.9 50.5 33.5 27.8zM33.2 77.6L28.6 85.3 11.5 55.1zM35 78.6L66.4 86.5H30.2zM79.3 53.3L90.9 50.8 72.1 84zM90.7 48.9L79.3 51.4 73.4 18.3zM35 24.3L30 13.5H68.2z" fill="white"></path></svg></g></svg></g><g></g></svg></g></svg></g></svg></g><defs><mask></mask></defs><mask><g id="SvgjsG4639"><svg viewBox="0 0 576 360" height="360" width="576"><g><svg></svg></g><g><svg viewBox="0 0 576 360" height="360" width="576"><g><path d="M132.115 90l155.885-90 155.885 90v180l-155.885 90-155.885-90zM138.708 266.194l149.292 86.194 149.292-86.194 0-172.388-149.292-86.194-149.292 86.194z" fill="black" fill-rule="nonzero" stroke="none" stroke-width="1" stroke-linecap="butt" stroke-linejoin="miter" stroke-miterlimit="10" stroke-dasharray="" stroke-dashoffset="0" font-family="none" font-weight="none" font-size="none" text-anchor="none" style="mix-blend-mode: normal"></path></g><g transform="matrix(1,0,0,1,218.74470902984066,99)"><svg viewBox="0 0 138.51058194031867 162" height="162" width="138.51058194031867"><g><svg viewBox="0 0 230.4 269.47255203997685" height="162" width="138.51058194031867"><g transform="matrix(1,0,0,1,0,147.877555949281)"><svg viewBox="0 0 230.4 121.59499609069584" height="121.59499609069584" width="230.4"><g id="SvgjsG4638"><svg viewBox="0 0 230.4 121.59499609069584" height="121.59499609069584" width="230.4" id="SvgjsSvg4637"><g><svg viewBox="0 0 230.4 121.59499609069584" height="121.59499609069584" width="230.4"><g transform="matrix(1,0,0,1,0,0)"><svg width="230.4" viewBox="1.5 -33.7 63.94 33.75" height="121.59499609069584" data-palette-color="url(#e2ff6c35-b620-4b3a-9f82-4fe678cb058a)"><path d="M16.6-33.65L16.6-10.2Q16.6-5.35 14.03-2.65 11.45 0.05 6.85 0.05L6.85 0.05Q3.4 0.05 1.5-0.95L1.5-0.95 1.5-7.75Q3.35-6.6 5.35-6.6L5.35-6.6Q8.9-6.6 8.9-10.4L8.9-10.4 8.9-33.65 16.6-33.65ZM45.55-14.3L45.55-14.3 45.2-13.1 53.3-13.1 52.95-14.3Q51.5-19.2 50.57-22.65 49.64-26.1 49.45-27.1L49.45-27.1 49.25-28.1Q48.84-25.35 45.55-14.3ZM43.34-6.9L41.3 0 33.24 0 44.49-33.7 54.2-33.7 65.44 0 57.2 0 55.14-6.9 43.34-6.9Z" opacity="1" transform="matrix(1,0,0,1,0,0)" fill="black" class="wordmark-text-0" id="SvgjsPath4636"></path></svg></g></svg></g></svg></g></svg></g><g transform="matrix(1,0,0,1,47.56608,0)"><svg viewBox="0 0 135.26784 119.1718956521739" height="119.1718956521739" width="135.26784"><g><svg xmlns="http://www.w3.org/2000/svg" xmlns:xlink="http://www.w3.org/1999/xlink" version="1.1" x="0" y="0" viewBox="6.3 11.5 87.4 77" style="enable-background:new 0 0 100 100;" xml:space="preserve" height="119.1718956521739" width="135.26784" class="icon-icon-0" data-fill-palette-color="accent" id="SvgjsSvg4635"><path d="M72.3 12.3L71.9 11.5H28.2L6.3 50 28.1 88.5H71.8L93.7 50zM33.3 25.3L9.9 47.7 28.5 14.9zM70.7 14.8L77.1 50.5 36.9 25.8zM35.5 27.3L76.5 52.5 35.5 75.8zM77 54.5L69.8 85.3 37.2 77.2zM33.5 75L9.9 50.5 33.5 27.8zM33.2 77.6L28.6 85.3 11.5 55.1zM35 78.6L66.4 86.5H30.2zM79.3 53.3L90.9 50.8 72.1 84zM90.7 48.9L79.3 51.4 73.4 18.3zM35 24.3L30 13.5H68.2z" fill="black"></path></svg></g></svg></g><g></g></svg></g></svg></g></svg></g><defs><mask></mask></defs></svg><rect width="576" height="360" fill="black" stroke="none" visibility="hidden"></rect></g></mask></svg><rect width="576" height="360" fill="black" stroke="none" visibility="hidden"></rect></g></mask><linearGradient x1="0" x2="1" y1="0.578" y2="0.595" id="2533c69e-9e03-4d36-86a5-bf141fec9471"><stop stop-color="#6ee2f5" offset="0"></stop><stop stop-color="#6454f0" offset="1"></stop></linearGradient><rect width="576" height="360" fill="url(#2533c69e-9e03-4d36-86a5-bf141fec9471)" mask="url(#650446e8-3207-47d0-a122-8c34e84984ac)" data-fill-palette-color="accent"></rect><mask id="dd208a46-587d-46ec-9f08-7fd0c9e0c441"><g id="SvgjsG4661"><svg viewBox="0 0 576 360" height="360" width="576"><g><svg></svg></g><g><svg viewBox="0 0 576 360" height="360" width="576"><g><path d="M132.115 90l155.885-90 155.885 90v180l-155.885 90-155.885-90zM138.708 266.194l149.292 86.194 149.292-86.194 0-172.388-149.292-86.194-149.292 86.194z" fill="white" fill-rule="nonzero" stroke="none" stroke-width="1" stroke-linecap="butt" stroke-linejoin="miter" stroke-miterlimit="10" stroke-dasharray="" stroke-dashoffset="0" font-family="none" font-weight="none" font-size="none" text-anchor="none" style="mix-blend-mode: normal"></path></g><g transform="matrix(1,0,0,1,218.74470902984066,99)"><svg viewBox="0 0 138.51058194031867 162" height="162" width="138.51058194031867"><g><svg viewBox="0 0 230.4 269.47255203997685" height="162" width="138.51058194031867"><g transform="matrix(1,0,0,1,0,147.877555949281)"><svg viewBox="0 0 230.4 121.59499609069584" height="121.59499609069584" width="230.4"><g id="SvgjsG4660"><svg viewBox="0 0 230.4 121.59499609069584" height="121.59499609069584" width="230.4" id="SvgjsSvg4659"><g><svg viewBox="0 0 230.4 121.59499609069584" height="121.59499609069584" width="230.4"><g transform="matrix(1,0,0,1,0,0)"><svg width="230.4" viewBox="1.5 -33.7 63.94 33.75" height="121.59499609069584" data-palette-color="url(#e2ff6c35-b620-4b3a-9f82-4fe678cb058a)"></svg></g></svg></g></svg></g></svg></g><g transform="matrix(1,0,0,1,47.56608,0)"><svg viewBox="0 0 135.26784 119.1718956521739" height="119.1718956521739" width="135.26784"><g><svg xmlns="http://www.w3.org/2000/svg" xmlns:xlink="http://www.w3.org/1999/xlink" version="1.1" x="0" y="0" viewBox="6.3 11.5 87.4 77" style="enable-background:new 0 0 100 100;" xml:space="preserve" height="119.1718956521739" width="135.26784" class="icon-icon-0" data-fill-palette-color="accent" id="SvgjsSvg4658"></svg></g></svg></g><g></g></svg></g></svg></g></svg></g><defs><mask></mask></defs><mask><g id="SvgjsG4657"><svg viewBox="0 0 576 360" height="360" width="576"><g><svg></svg></g><g><svg viewBox="0 0 576 360" height="360" width="576"><g><path d="M132.115 90l155.885-90 155.885 90v180l-155.885 90-155.885-90zM138.708 266.194l149.292 86.194 149.292-86.194 0-172.388-149.292-86.194-149.292 86.194z" fill="black" fill-rule="nonzero" stroke="none" stroke-width="1" stroke-linecap="butt" stroke-linejoin="miter" stroke-miterlimit="10" stroke-dasharray="" stroke-dashoffset="0" font-family="none" font-weight="none" font-size="none" text-anchor="none" style="mix-blend-mode: normal"></path></g><g transform="matrix(1,0,0,1,218.74470902984066,99)"><svg viewBox="0 0 138.51058194031867 162" height="162" width="138.51058194031867"><g><svg viewBox="0 0 230.4 269.47255203997685" height="162" width="138.51058194031867"><g transform="matrix(1,0,0,1,0,147.877555949281)"><svg viewBox="0 0 230.4 121.59499609069584" height="121.59499609069584" width="230.4"><g id="SvgjsG4656"><svg viewBox="0 0 230.4 121.59499609069584" height="121.59499609069584" width="230.4" id="SvgjsSvg4655"><g><svg viewBox="0 0 230.4 121.59499609069584" height="121.59499609069584" width="230.4"><g transform="matrix(1,0,0,1,0,0)"><svg width="230.4" viewBox="1.5 -33.7 63.94 33.75" height="121.59499609069584" data-palette-color="url(#e2ff6c35-b620-4b3a-9f82-4fe678cb058a)"><path d="M16.6-33.65L16.6-10.2Q16.6-5.35 14.03-2.65 11.45 0.05 6.85 0.05L6.85 0.05Q3.4 0.05 1.5-0.95L1.5-0.95 1.5-7.75Q3.35-6.6 5.35-6.6L5.35-6.6Q8.9-6.6 8.9-10.4L8.9-10.4 8.9-33.65 16.6-33.65ZM45.55-14.3L45.55-14.3 45.2-13.1 53.3-13.1 52.95-14.3Q51.5-19.2 50.57-22.65 49.64-26.1 49.45-27.1L49.45-27.1 49.25-28.1Q48.84-25.35 45.55-14.3ZM43.34-6.9L41.3 0 33.24 0 44.49-33.7 54.2-33.7 65.44 0 57.2 0 55.14-6.9 43.34-6.9Z" opacity="1" transform="matrix(1,0,0,1,0,0)" fill="black" class="wordmark-text-0" id="SvgjsPath4654"></path></svg></g></svg></g></svg></g></svg></g><g transform="matrix(1,0,0,1,47.56608,0)"><svg viewBox="0 0 135.26784 119.1718956521739" height="119.1718956521739" width="135.26784"><g><svg xmlns="http://www.w3.org/2000/svg" xmlns:xlink="http://www.w3.org/1999/xlink" version="1.1" x="0" y="0" viewBox="6.3 11.5 87.4 77" style="enable-background:new 0 0 100 100;" xml:space="preserve" height="119.1718956521739" width="135.26784" class="icon-icon-0" data-fill-palette-color="accent" id="SvgjsSvg4653"><path d="M72.3 12.3L71.9 11.5H28.2L6.3 50 28.1 88.5H71.8L93.7 50zM33.3 25.3L9.9 47.7 28.5 14.9zM70.7 14.8L77.1 50.5 36.9 25.8zM35.5 27.3L76.5 52.5 35.5 75.8zM77 54.5L69.8 85.3 37.2 77.2zM33.5 75L9.9 50.5 33.5 27.8zM33.2 77.6L28.6 85.3 11.5 55.1zM35 78.6L66.4 86.5H30.2zM79.3 53.3L90.9 50.8 72.1 84zM90.7 48.9L79.3 51.4 73.4 18.3zM35 24.3L30 13.5H68.2z" fill="black"></path></svg></g></svg></g><g></g></svg></g></svg></g></svg></g><defs><mask></mask></defs></svg><rect width="576" height="360" fill="black" stroke="none" visibility="hidden"></rect></g></mask><mask><g id="SvgjsG4652"><svg viewBox="0 0 576 360" height="360" width="576"><g><svg></svg></g><g><svg viewBox="0 0 576 360" height="360" width="576"><g><path d="M132.115 90l155.885-90 155.885 90v180l-155.885 90-155.885-90zM138.708 266.194l149.292 86.194 149.292-86.194 0-172.388-149.292-86.194-149.292 86.194z" fill="black" fill-rule="nonzero" stroke="none" stroke-width="1" stroke-linecap="butt" stroke-linejoin="miter" stroke-miterlimit="10" stroke-dasharray="" stroke-dashoffset="0" font-family="none" font-weight="none" font-size="none" text-anchor="none" style="mix-blend-mode: normal"></path></g><g transform="matrix(1,0,0,1,218.74470902984066,99)"><svg viewBox="0 0 138.51058194031867 162" height="162" width="138.51058194031867"><g><svg viewBox="0 0 230.4 269.47255203997685" height="162" width="138.51058194031867"><g transform="matrix(1,0,0,1,0,147.877555949281)"><svg viewBox="0 0 230.4 121.59499609069584" height="121.59499609069584" width="230.4"><g id="SvgjsG4651"><svg viewBox="0 0 230.4 121.59499609069584" height="121.59499609069584" width="230.4" id="SvgjsSvg4650"><g><svg viewBox="0 0 230.4 121.59499609069584" height="121.59499609069584" width="230.4"><g transform="matrix(1,0,0,1,0,0)"><svg width="230.4" viewBox="1.5 -33.7 63.94 33.75" height="121.59499609069584" data-palette-color="url(#e2ff6c35-b620-4b3a-9f82-4fe678cb058a)"></svg></g></svg></g></svg></g></svg></g><g transform="matrix(1,0,0,1,47.56608,0)"><svg viewBox="0 0 135.26784 119.1718956521739" height="119.1718956521739" width="135.26784"><g><svg xmlns="http://www.w3.org/2000/svg" xmlns:xlink="http://www.w3.org/1999/xlink" version="1.1" x="0" y="0" viewBox="6.3 11.5 87.4 77" style="enable-background:new 0 0 100 100;" xml:space="preserve" height="119.1718956521739" width="135.26784" class="icon-icon-0" data-fill-palette-color="accent" id="SvgjsSvg4649"><path d="M72.3 12.3L71.9 11.5H28.2L6.3 50 28.1 88.5H71.8L93.7 50zM33.3 25.3L9.9 47.7 28.5 14.9zM70.7 14.8L77.1 50.5 36.9 25.8zM35.5 27.3L76.5 52.5 35.5 75.8zM77 54.5L69.8 85.3 37.2 77.2zM33.5 75L9.9 50.5 33.5 27.8zM33.2 77.6L28.6 85.3 11.5 55.1zM35 78.6L66.4 86.5H30.2zM79.3 53.3L90.9 50.8 72.1 84zM90.7 48.9L79.3 51.4 73.4 18.3zM35 24.3L30 13.5H68.2z" fill="black"></path></svg></g></svg></g><g></g></svg></g></svg></g></svg></g><defs><mask></mask></defs><mask><g id="SvgjsG4648"><svg viewBox="0 0 576 360" height="360" width="576"><g><svg></svg></g><g><svg viewBox="0 0 576 360" height="360" width="576"><g><path d="M132.115 90l155.885-90 155.885 90v180l-155.885 90-155.885-90zM138.708 266.194l149.292 86.194 149.292-86.194 0-172.388-149.292-86.194-149.292 86.194z" fill="black" fill-rule="nonzero" stroke="none" stroke-width="1" stroke-linecap="butt" stroke-linejoin="miter" stroke-miterlimit="10" stroke-dasharray="" stroke-dashoffset="0" font-family="none" font-weight="none" font-size="none" text-anchor="none" style="mix-blend-mode: normal"></path></g><g transform="matrix(1,0,0,1,218.74470902984066,99)"><svg viewBox="0 0 138.51058194031867 162" height="162" width="138.51058194031867"><g><svg viewBox="0 0 230.4 269.47255203997685" height="162" width="138.51058194031867"><g transform="matrix(1,0,0,1,0,147.877555949281)"><svg viewBox="0 0 230.4 121.59499609069584" height="121.59499609069584" width="230.4"><g id="SvgjsG4647"><svg viewBox="0 0 230.4 121.59499609069584" height="121.59499609069584" width="230.4" id="SvgjsSvg4646"><g><svg viewBox="0 0 230.4 121.59499609069584" height="121.59499609069584" width="230.4"><g transform="matrix(1,0,0,1,0,0)"><svg width="230.4" viewBox="1.5 -33.7 63.94 33.75" height="121.59499609069584" data-palette-color="url(#e2ff6c35-b620-4b3a-9f82-4fe678cb058a)"><path d="M16.6-33.65L16.6-10.2Q16.6-5.35 14.03-2.65 11.45 0.05 6.85 0.05L6.85 0.05Q3.4 0.05 1.5-0.95L1.5-0.95 1.5-7.75Q3.35-6.6 5.35-6.6L5.35-6.6Q8.9-6.6 8.9-10.4L8.9-10.4 8.9-33.65 16.6-33.65ZM45.55-14.3L45.55-14.3 45.2-13.1 53.3-13.1 52.95-14.3Q51.5-19.2 50.57-22.65 49.64-26.1 49.45-27.1L49.45-27.1 49.25-28.1Q48.84-25.35 45.55-14.3ZM43.34-6.9L41.3 0 33.24 0 44.49-33.7 54.2-33.7 65.44 0 57.2 0 55.14-6.9 43.34-6.9Z" opacity="1" transform="matrix(1,0,0,1,0,0)" fill="black" class="wordmark-text-0" id="SvgjsPath4645"></path></svg></g></svg></g></svg></g></svg></g><g transform="matrix(1,0,0,1,47.56608,0)"><svg viewBox="0 0 135.26784 119.1718956521739" height="119.1718956521739" width="135.26784"><g><svg xmlns="http://www.w3.org/2000/svg" xmlns:xlink="http://www.w3.org/1999/xlink" version="1.1" x="0" y="0" viewBox="6.3 11.5 87.4 77" style="enable-background:new 0 0 100 100;" xml:space="preserve" height="119.1718956521739" width="135.26784" class="icon-icon-0" data-fill-palette-color="accent" id="SvgjsSvg4644"><path d="M72.3 12.3L71.9 11.5H28.2L6.3 50 28.1 88.5H71.8L93.7 50zM33.3 25.3L9.9 47.7 28.5 14.9zM70.7 14.8L77.1 50.5 36.9 25.8zM35.5 27.3L76.5 52.5 35.5 75.8zM77 54.5L69.8 85.3 37.2 77.2zM33.5 75L9.9 50.5 33.5 27.8zM33.2 77.6L28.6 85.3 11.5 55.1zM35 78.6L66.4 86.5H30.2zM79.3 53.3L90.9 50.8 72.1 84zM90.7 48.9L79.3 51.4 73.4 18.3zM35 24.3L30 13.5H68.2z" fill="black"></path></svg></g></svg></g><g></g></svg></g></svg></g></svg></g><defs><mask></mask></defs></svg><rect width="576" height="360" fill="black" stroke="none" visibility="hidden"></rect></g></mask></svg><rect width="576" height="360" fill="black" stroke="none" visibility="hidden"></rect></g></mask></svg><rect width="576" height="360" fill="black" stroke="none" visibility="hidden"></rect></g></mask><linearGradient x1="0" x2="1" y1="0.578" y2="0.595" id="b74d2ed0-9920-49af-a30b-d58940bb4db8"><stop stop-color="#6ee2f5" offset="0"></stop><stop stop-color="#6454f0" offset="1"></stop></linearGradient></svg><rect width="576" height="360" fill="none" stroke="none" visibility="hidden"></rect></g></svg></g></svg>